<svg viewBox="0 0 72 72" xmlns="http://www.w3.org/2000/svg"><path d="m35.9899 10.9064c-11.0457 0-20 4.4773-20 10l.0261.2749c2.9513 30.53 18.6744 39.0674 19.8983 39.6877l.0756.0374s17-8 20-40c.5156-5.4986-8.9543-10-20-10zm.0021 43.9776-.0604-.0299c-.978-.4957-13.5423-7.318-15.9006-31.7145l-.021-.2195c0-4.4133 7.1553-7.991 15.9819-7.991 8.8265 0 16.3938 3.5969 15.9819 7.991-2.3972 25.5711-15.9818 31.9639-15.9818 31.9639z" fill="#d0cfce"/><path d="m35 17.9064 3 4-3 4 3 4-3 4 3 4-3 4 3 4-3 4 1 5.2597s-15-11-16-32c0 0 0-8 16-8z" fill="#ea5a47"/><path d="m36 15.1661-1 2.7403 3 4-3 4 3 4-3 4 3 4-3 4 3 4-3 4 1.002 4.9774s13.8441-8.9583 15.9819-31.9638c0 0-.8334-6.9702-15.9839-7.7539z" fill="#d22f27"/><g style="fill:none;stroke:#000;stroke-linecap:round;stroke-linejoin:round;stroke-miterlimit:10;stroke-width:2"><path d="m35.9245 60.8691c-1.2239-.6204-16.947-9.1579-19.8983-39.6878l-.0262-.2749c0-5.5228 8.9543-10 20-10s20.5155 4.5013 20 10c-3 32-20 40-20 40z"/><path d="m35.9417 54.854c-.978-.4958-13.5423-7.318-15.9006-31.7144l-.021-.2196c0-4.4133 7.1553-7.991 15.9819-7.991s16.3938 3.5969 15.9819 7.991c-2.3973 25.5711-15.9819 31.9638-15.9819 31.9638z"/></g></svg>